<?xml version="1.0" standalone="no"?>
<!DOCTYPE svg PUBLIC "-//W3C//DTD SVG 20010904//EN"
 "http://www.w3.org/TR/2001/REC-SVG-20010904/DTD/svg10.dtd">
<svg version="1.0" xmlns="http://www.w3.org/2000/svg"
 width="512.000000pt" height="512.000000pt" viewBox="0 0 512.000000 512.000000"
 preserveAspectRatio="xMidYMid meet">
<metadata>
Created by potrace 1.14, written by Peter Selinger 2001-2017
</metadata>
<g transform="translate(0.000000,512.000000) scale(0.100000,-0.100000)"
fill="#000000" stroke="none">
<path d="M2513 4988 c-22 -11 -57 -78 -523 -1023 -138 -280 -256 -512 -262
-516 -6 -4 -36 -10 -67 -13 -102 -13 -126 -16 -181 -26 -30 -5 -75 -12 -100
-15 -25 -3 -70 -10 -100 -15 -30 -5 -75 -12 -100 -15 -90 -12 -116 -16 -170
-25 -30 -5 -73 -12 -95 -15 -23 -3 -51 -7 -64 -10 -13 -2 -44 -7 -70 -10 -25
-3 -71 -9 -101 -15 -30 -5 -73 -11 -95 -14 -44 -5 -91 -12 -175 -26 -30 -5
-75 -12 -100 -15 -128 -17 -238 -37 -262 -46 -32 -13 -53 -59 -43 -96 7 -28
39 -61 521 -528 131 -126 310 -300 398 -387 89 -86 194 -187 234 -225 71 -67
73 -69 67 -108 -4 -22 -8 -47 -10 -55 -2 -8 -7 -37 -11 -65 -3 -27 -7 -52 -9
-55 -2 -3 -6 -30 -10 -60 -4 -30 -9 -58 -10 -61 -2 -3 -7 -28 -10 -55 -4 -27
-8 -56 -10 -64 -5 -17 -33 -173 -41 -228 -2 -20 -11 -71 -19 -112 -8 -41 -17
-95 -21 -120 -12 -82 -14 -95 -24 -140 -5 -25 -11 -61 -14 -80 -2 -19 -21
-127 -41 -240 -20 -113 -38 -218 -41 -234 -16 -92 5 -138 69 -150 33 -6 61 6
207 86 36 19 117 62 180 95 107 56 300 158 465 244 39 21 99 52 135 71 66 33
232 121 438 229 l113 60 82 -44 c82 -44 179 -96 397 -210 63 -33 129 -68 145
-77 17 -10 89 -48 160 -85 72 -37 162 -85 200 -105 444 -237 516 -272 549
-266 41 9 75 44 77 81 1 17 -3 57 -9 90 -6 33 -14 76 -17 95 -3 19 -7 46 -10
60 -3 14 -7 41 -10 60 -8 48 -28 165 -46 270 -6 30 -12 64 -13 75 -19 112 -57
334 -61 354 -8 40 -84 485 -101 585 l-15 89 118 114 c65 63 262 256 438 428
176 172 398 388 493 481 148 145 174 174 179 206 5 32 1 41 -24 66 -29 29 -54
36 -233 58 -25 3 -70 9 -100 14 -30 5 -75 12 -99 15 -23 3 -55 7 -70 9 -14 3
-46 7 -71 11 -25 3 -56 8 -70 10 -14 2 -41 6 -60 9 -19 3 -84 12 -145 21 -105
15 -136 20 -207 29 -40 6 -453 65 -488 71 -64 10 -146 19 -153 17 -7 -2 -288
561 -683 1365 -75 152 -88 172 -116 182 -37 13 -56 13 -85 -1z"/>
</g>
</svg>
